<svg xmlns="http://www.w3.org/2000/svg" version="1.1" xmlns:xlink="http://www.w3.org/1999/xlink" xmlns:svgjs="http://svgjs.dev/svgjs" width="2000" height="1500" viewBox="0 0 2000 1500"><rect width="2000" height="1500" fill="#051726"></rect><g transform="matrix(0.4444444444444444,0,0,0.4444444444444444,555.5556575776648,250)"><svg viewBox="0 0 320 360" data-background-color="#051726" preserveAspectRatio="xMidYMid meet" height="2250" width="2000" xmlns="http://www.w3.org/2000/svg" xmlns:xlink="http://www.w3.org/1999/xlink"><g id="tight-bounds" transform="matrix(1,0,0,1,-0.00003672795929787753,0)"><svg viewBox="0 0 320 360" height="360" width="320"><g><svg></svg></g><g><svg viewBox="0 0 320 360" height="360" width="320"><g><path transform="translate(-32.1528,-12.1528) scale(3.84303,3.84303)" d="M88.492 50l1.711-2.963c2.946-5.102 1.198-11.626-3.904-14.572l-2.963-1.711v-3.422c0-5.891-4.776-10.667-10.667-10.667h-3.422l-1.711-2.963c-2.946-5.102-9.47-6.85-14.572-3.904l-2.964 1.71-2.963-1.711c-5.102-2.945-11.626-1.197-14.572 3.905l-1.711 2.963h-3.422c-5.891 0-10.667 4.776-10.667 10.667v3.422l-2.963 1.711c-5.102 2.946-6.85 9.47-3.904 14.572l1.71 2.963-1.711 2.963c-2.945 5.102-1.197 11.626 3.905 14.572l2.963 1.711v3.422c0 5.891 4.776 10.667 10.667 10.667h3.422l1.711 2.963c2.946 5.102 9.47 6.85 14.572 3.904l2.963-1.71 2.963 1.711c5.102 2.946 11.626 1.198 14.572-3.904l1.711-2.963h3.422c5.891 0 10.667-4.776 10.667-10.667v-3.422l2.963-1.711c5.102-2.946 6.85-9.47 3.904-14.572zM85.832 33.273c2.252 1.3 3.862 3.399 4.535 5.91 0.673 2.511 0.328 5.135-0.972 7.386l-1.441 2.497-4.618-7.999v-9.236zM73.72 73.72l-15.038 8.682h-17.364l-15.038-8.682-8.682-15.038v-17.364l8.682-15.038 15.038-8.682h17.364l15.038 8.682 8.682 15.038v17.364zM82.401 60.549v8.158l-7.065 4.079zM72.786 75.336l-4.079 7.065h-8.158zM57.065 83.335l-7.065 4.079-7.065-4.079zM39.451 82.401h-8.158l-4.079-7.065zM24.664 72.786l-7.065-4.079v-8.158zM16.665 57.065l-4.079-7.065 4.079-7.065zM17.599 39.451v-8.158l7.065-4.079zM27.214 24.664l4.079-7.065h8.158zM42.935 16.665l7.065-4.079 7.065 4.079zM60.549 17.599h8.158l4.079 7.065zM75.336 27.214l7.065 4.079v8.158zM83.335 42.935l4.079 7.065-4.079 7.065zM72.668 17.599c2.6 0 5.044 1.012 6.883 2.851 1.838 1.838 2.851 4.283 2.851 6.883v2.883l-7.999-4.618-4.618-7.999zM53.43 10.606c2.252-1.3 4.875-1.645 7.386-0.972 2.511 0.673 4.61 2.284 5.91 4.535l1.441 2.497h-9.236l-7.999-4.618zM33.273 14.168c1.3-2.252 3.399-3.862 5.91-4.535 2.511-0.673 5.135-0.328 7.386 0.972l2.497 1.441-7.999 4.618h-9.236zM17.599 27.332c0-2.6 1.012-5.044 2.851-6.883 1.838-1.838 4.283-2.851 6.883-2.851h2.883l-4.618 7.999-7.999 4.618zM10.606 46.57c-1.3-2.252-1.645-4.875-0.972-7.386 0.673-2.511 2.284-4.61 4.535-5.91l2.497-1.441v9.236l-4.618 7.999zM14.168 66.727c-2.252-1.3-3.862-3.399-4.535-5.91-0.673-2.511-0.328-5.135 0.972-7.386l1.441-2.497 4.618 7.999v9.236zM27.332 82.401c-2.6 0-5.044-1.012-6.883-2.851-1.838-1.838-2.851-4.283-2.851-6.883v-2.883l7.999 4.618 4.618 7.999zM46.57 89.394c-2.252 1.3-4.875 1.645-7.386 0.972-2.511-0.673-4.61-2.284-5.91-4.535l-1.441-2.497h9.236l7.999 4.618zM66.727 85.832c-1.3 2.252-3.399 3.862-5.91 4.535-2.511 0.673-5.135 0.328-7.386-0.972l-2.497-1.441 7.999-4.618h9.236zM82.401 72.668c0 2.6-1.012 5.044-2.851 6.883-1.838 1.838-4.283 2.851-6.883 2.851h-2.883l4.618-7.999 7.999-4.618zM90.367 60.816c-0.673 2.511-2.284 4.61-4.535 5.91l-2.497 1.441v-9.236l4.618-7.999 1.441 2.497c1.3 2.253 1.646 4.876 0.973 7.387z" fill="#ffffff" fill-rule="nonzero" stroke="none" stroke-width="1" stroke-linecap="butt" stroke-linejoin="miter" stroke-miterlimit="10" stroke-dasharray="" stroke-dashoffset="0" font-family="none" font-weight="none" font-size="none" text-anchor="none" style="mix-blend-mode: normal" data-fill-palette-color="tertiary"></path></g><g transform="matrix(1,0,0,1,64,130.42415305642817)"><svg viewBox="0 0 192 99.1516938871437" height="99.1516938871437" width="192"><g><svg viewBox="0 0 192 99.1516938871437" height="99.1516938871437" width="192"><g><svg viewBox="0 0 192 99.1516938871437" height="99.1516938871437" width="192"><g><svg viewBox="0 0 192 33.95462478184991" height="33.95462478184991" width="192"><g id="textblocktransform"><svg viewBox="0 0 192 33.95462478184991" height="33.95462478184991" width="192" id="textblock"><g><svg viewBox="0 0 192 33.95462478184991" height="33.95462478184991" width="192"><g transform="matrix(1,0,0,1,0,0)"><svg width="192" viewBox="-1.25 -42 258.83000000000004 46.6" height="33.95462478184991" data-palette-color="#ffffff"><path d="M2.75 0L2.75-2.3 6.5-2.3 6.5-32.6 2.75-32.6 2.75-34.9 19.45-34.9Q23.85-34.9 26.33-32.65 28.8-30.4 28.8-26.65L28.8-26.65Q28.8-24.8 28.25-23.35 27.7-21.9 26.78-20.85 25.85-19.8 24.68-19.15 23.5-18.5 22.25-18.3L22.25-18.3 22.25-18.15Q23.55-18.05 24.95-17.5 26.35-16.95 27.5-15.9 28.65-14.85 29.4-13.3 30.15-11.75 30.15-9.7L30.15-9.7Q30.15-7.5 29.48-5.7 28.8-3.9 27.58-2.63 26.35-1.35 24.65-0.68 22.95 0 20.95 0L20.95 0 2.75 0ZM10.8-16.8L10.8-2.45 19.4-2.45Q22.3-2.45 23.93-4.15 25.55-5.85 25.55-8.55L25.55-8.55 25.55-10.75Q25.55-13.4 23.93-15.1 22.3-16.8 19.4-16.8L19.4-16.8 10.8-16.8ZM10.8-32.45L10.8-19.25 18.6-19.25Q21.3-19.25 22.75-20.8 24.2-22.35 24.2-24.75L24.2-24.75 24.2-26.95Q24.2-29.35 22.75-30.9 21.3-32.45 18.6-32.45L18.6-32.45 10.8-32.45ZM35.25 0L35.25-2.3 38.95-2.3 38.95-34.15 35.25-34.8 35.25-36.55 43.05-38 43.05-2.3 46.75-2.3 46.75 0 35.25 0ZM58.65 0.6L58.65 0.6Q55.05 0.6 53.02-1.28 51-3.15 51-6.4L51-6.4Q51-8.25 51.6-9.68 52.2-11.1 53.57-12.05 54.95-13 57.15-13.5 59.35-14 62.5-14L62.5-14 66.2-14 66.2-17.8Q66.2-20.85 64.72-22.48 63.25-24.1 60.3-24.1L60.3-24.1Q59-24.1 57.9-23.88 56.8-23.65 56.1-23.25L56.1-23.25 56.1-23.15Q56.65-22.85 57.17-22.25 57.7-21.65 57.7-20.55L57.7-20.55Q57.7-19.25 56.95-18.53 56.2-17.8 54.95-17.8L54.95-17.8Q53.75-17.8 52.97-18.53 52.2-19.25 52.2-20.7L52.2-20.7Q52.2-21.8 52.85-22.83 53.5-23.85 54.7-24.65 55.9-25.45 57.67-25.93 59.45-26.4 61.7-26.4L61.7-26.4Q65.75-26.4 68.02-24.3 70.3-22.2 70.3-18.4L70.3-18.4 70.3-2.15 74.05-2.15 74.05-0.4Q73.5 0 72.57 0.3 71.65 0.6 70.5 0.6L70.5 0.6Q68.55 0.6 67.5-0.5 66.45-1.6 66.45-3.45L66.45-3.45 66.45-3.8 66.2-3.8Q65.84-2.95 65.27-2.15 64.7-1.35 63.8-0.75 62.9-0.15 61.62 0.23 60.35 0.6 58.65 0.6ZM60.4-2.15L60.4-2.15Q62.8-2.15 64.5-3.38 66.2-4.6 66.2-7.15L66.2-7.15 66.2-12 62.95-12Q60.8-12 59.35-11.68 57.9-11.35 57.05-10.73 56.2-10.1 55.82-9.2 55.45-8.3 55.45-7.1L55.45-7.1 55.45-6.05Q55.45-4.15 56.75-3.15 58.05-2.15 60.4-2.15ZM84.04-31.75L84.04-31.75Q82.74-31.75 82.07-32.52 81.39-33.3 81.39-34.4L81.39-34.4 81.39-34.65Q81.39-35.75 82.07-36.52 82.74-37.3 84.04-37.3L84.04-37.3Q85.34-37.3 86.04-36.52 86.74-35.75 86.74-34.65L86.74-34.65 86.74-34.4Q86.74-33.3 86.04-32.52 85.34-31.75 84.04-31.75ZM78.29 0L78.29-2.3 81.99-2.3 81.99-22.55 78.29-23.2 78.29-24.9 86.09-26.4 86.09-2.3 89.79-2.3 89.79 0 78.29 0ZM94.04 0L94.04-1.75 108.79-23.45 97.44-23.45 97.44-18.05 94.44-18.05 94.44-25.8 114.04-25.8 114.04-24.05 99.29-2.35 111.44-2.35 111.44-7.75 114.44-7.75 114.44 0 94.04 0ZM119.69 0L119.69-2.3 123.44-2.3 123.44-32.6 119.69-32.6 119.69-34.9 134.29-34.9Q137.74-34.9 140.59-33.83 143.44-32.75 145.46-30.58 147.49-28.4 148.61-25.13 149.74-21.85 149.74-17.45L149.74-17.45Q149.74-13.05 148.61-9.78 147.49-6.5 145.46-4.33 143.44-2.15 140.59-1.07 137.74 0 134.29 0L134.29 0 119.69 0ZM127.74-32.45L127.74-2.45 133.84-2.45Q136.39-2.45 138.46-3.33 140.54-4.2 141.96-5.78 143.39-7.35 144.16-9.55 144.94-11.75 144.94-14.45L144.94-14.45 144.94-20.45Q144.94-23.15 144.16-25.35 143.39-27.55 141.96-29.13 140.54-30.7 138.46-31.58 136.39-32.45 133.84-32.45L133.84-32.45 127.74-32.45ZM160.49-31.75L160.49-31.75Q159.19-31.75 158.51-32.52 157.84-33.3 157.84-34.4L157.84-34.4 157.84-34.65Q157.84-35.75 158.51-36.52 159.19-37.3 160.49-37.3L160.49-37.3Q161.79-37.3 162.49-36.52 163.19-35.75 163.19-34.65L163.19-34.65 163.19-34.4Q163.19-33.3 162.49-32.52 161.79-31.75 160.49-31.75ZM154.74 0L154.74-2.3 158.44-2.3 158.44-22.55 154.74-23.2 154.74-24.9 162.54-26.4 162.54-2.3 166.24-2.3 166.24 0 154.74 0ZM169.53 0L169.53-2.3 172.38-2.3 179.93-12.6 172.28-23.5 169.68-23.5 169.68-25.8 180.18-25.8 180.18-23.5 177.23-23.5 182.83-15.3 183.03-15.3 188.33-23.5 185.23-23.5 185.23-25.8 194.28-25.8 194.28-23.5 191.43-23.5 184.28-13.35 191.93-2.3 194.53-2.3 194.53 0 183.98 0 183.98-2.3 186.93-2.3 181.38-10.65 181.18-10.65 175.48-2.3 178.58-2.3 178.58 0 169.53 0ZM209.28-1.85L209.28-1.85Q211.13-1.85 212.51-2.48 213.88-3.1 214.76-4.23 215.63-5.35 216.06-6.88 216.48-8.4 216.48-10.2L216.48-10.2 216.48-15.6Q216.48-17.4 216.06-18.93 215.63-20.45 214.76-21.58 213.88-22.7 212.51-23.33 211.13-23.95 209.28-23.95L209.28-23.95Q207.38-23.95 206.03-23.33 204.68-22.7 203.81-21.58 202.93-20.45 202.51-18.93 202.08-17.4 202.08-15.6L202.08-15.6 202.08-10.2Q202.08-8.4 202.51-6.88 202.93-5.35 203.81-4.23 204.68-3.1 206.03-2.48 207.38-1.85 209.28-1.85ZM209.28 0.6L209.28 0.6Q206.63 0.6 204.43-0.35 202.23-1.3 200.68-3.08 199.13-4.85 198.28-7.33 197.43-9.8 197.43-12.9L197.43-12.9Q197.43-15.95 198.28-18.45 199.13-20.95 200.68-22.73 202.23-24.5 204.43-25.45 206.63-26.4 209.28-26.4L209.28-26.4Q211.93-26.4 214.13-25.45 216.33-24.5 217.88-22.73 219.43-20.95 220.28-18.45 221.13-15.95 221.13-12.9L221.13-12.9Q221.13-9.8 220.28-7.33 219.43-4.85 217.88-3.08 216.33-1.3 214.13-0.35 211.93 0.6 209.28 0.6ZM225.88 0L225.88-2.3 229.58-2.3 229.58-22.55 225.88-23.2 225.88-24.9 233.58-26.4 233.58-21.9 233.78-21.9Q234.08-22.65 234.7-23.45 235.33-24.25 236.25-24.9 237.18-25.55 238.43-25.98 239.68-26.4 241.18-26.4L241.18-26.4Q245.83-26.4 247.85-23.98 249.88-21.55 249.88-16.7L249.88-16.7 249.88-2.3 253.58-2.3 253.58 0 242.08 0 242.08-2.3 245.78-2.3 245.78-16.35Q245.78-23.55 239.73-23.55L239.73-23.55Q238.63-23.55 237.55-23.25 236.48-22.95 235.6-22.3 234.73-21.65 234.2-20.7 233.68-19.75 233.68-18.45L233.68-18.45 233.68-2.3 237.38-2.3 237.38 0 225.88 0Z" opacity="1" transform="matrix(1,0,0,1,0,0)" fill="#ffffff" class="wordmark-text-0" data-fill-palette-color="primary" id="text-0"></path></svg></g></svg></g></svg></g></svg></g><g transform="matrix(1,0,0,1,50.512610277293,38.148815004072134)"><svg viewBox="0 0 90.974779445414 61.00287888307155" height="61.00287888307155" width="90.974779445414"><g><svg xmlns="http://www.w3.org/2000/svg" xmlns:xlink="http://www.w3.org/1999/xlink" version="1.1" x="0" y="0" viewBox="2.2 15.4 85.9 57.6" enable-background="new 0 0 90 90" xml:space="preserve" height="61.00287888307155" width="90.974779445414" class="icon-icon-0" data-fill-palette-color="accent" id="icon-0"><g fill="#81ffd9" data-fill-palette-color="accent"><path d="M6.6 25c0 1.4 1.1 2.5 2.5 2.5s2.5-1.1 2.5-2.5-1.1-2.5-2.5-2.5S6.6 23.6 6.6 25zM10.7 25c0 0.9-0.7 1.6-1.6 1.6-0.9 0-1.6-0.7-1.6-1.6 0-0.9 0.7-1.6 1.6-1.6C10 23.4 10.7 24.1 10.7 25z" fill="#81ffd9" data-fill-palette-color="accent"></path><path d="M64.3 27.8H17.2v14.1h47.1V27.8zM63.4 41H18.1V28.7h45.3V41z" fill="#81ffd9" data-fill-palette-color="accent"></path><path d="M17.2 53.3H30v-9.7H17.2V53.3zM18.1 44.5h10.9v7.9H18.1V44.5z" fill="#81ffd9" data-fill-palette-color="accent"></path><rect x="32.9" y="44.2" width="31" height="0.9" fill="#81ffd9" data-fill-palette-color="accent"></rect><rect x="32.9" y="46.6" width="31" height="0.9" fill="#81ffd9" data-fill-palette-color="accent"></rect><rect x="32.9" y="49.1" width="31" height="0.9" fill="#81ffd9" data-fill-palette-color="accent"></rect><rect x="32.9" y="51.6" width="18" height="0.9" fill="#81ffd9" data-fill-palette-color="accent"></rect><rect x="27.8" y="70.5" width="26.1" height="2.5" fill="#81ffd9" data-fill-palette-color="accent"></rect><path d="M4.1 20.5h73.5v10.9h1.8V20.5c0-2.8-2.3-5.1-5.1-5.1H7.3c-2.8 0-5.1 2.3-5.1 5.1v38c0 2.8 2.3 5.1 5.1 5.1h24.1L31 69.4h1.8l0.5-5.8h15.1l0.5 5.8h1.8l-0.5-5.8h15.9v-6H4.1V20.5z" fill="#81ffd9" data-fill-palette-color="accent"></path><path d="M82.2 32.3h-9.2c-3.3 0-5.9 2.7-5.9 5.9v28.1c0 3.3 2.7 5.9 5.9 5.9h9.2c3.3 0 5.9-2.7 5.9-5.9V38.2C88.1 35 85.4 32.3 82.2 32.3zM68.2 64.8V38.6h18.7v26.2H68.2zM75.9 35.2h3.3c0.3 0 0.6 0.3 0.6 0.6s-0.3 0.6-0.6 0.6h-3.3c-0.3 0-0.6-0.3-0.6-0.6S75.5 35.2 75.9 35.2zM79.3 68c0 0.7-0.6 1.3-1.3 1.3h-0.7c-0.7 0-1.3-0.6-1.3-1.3V68c0-0.7 0.6-1.3 1.3-1.3h0.7C78.6 66.6 79.3 67.2 79.3 68L79.3 68z" fill="#81ffd9" data-fill-palette-color="accent"></path><path d="M68.9 49.9h17.2v-6.7H68.9V49.9zM69.7 44h15.5v5H69.7V44z" fill="#81ffd9" data-fill-palette-color="accent"></path><path d="M77.2 50.3h-8.4V57h8.4V50.3zM76.4 56.2h-6.6v-5h6.6V56.2z" fill="#81ffd9" data-fill-palette-color="accent"></path><path d="M77.7 57h8.4v-6.7h-8.4V57zM78.6 51.2h6.6v5h-6.6V51.2z" fill="#81ffd9" data-fill-palette-color="accent"></path><path d="M77.4 42.6c1 0 1.8-0.8 1.8-1.8S78.3 39 77.4 39s-1.8 0.8-1.8 1.8S76.4 42.6 77.4 42.6zM77.4 39.9c0.5 0 0.9 0.4 0.9 0.9s-0.4 0.9-0.9 0.9-0.9-0.4-0.9-0.9S76.8 39.9 77.4 39.9z" fill="#81ffd9" data-fill-palette-color="accent"></path><rect x="68.9" y="57.9" width="17.2" height="0.9" fill="#81ffd9" data-fill-palette-color="accent"></rect><rect x="68.9" y="59.6" width="17.2" height="0.9" fill="#81ffd9" data-fill-palette-color="accent"></rect><rect x="68.9" y="61.2" width="17.2" height="0.9" fill="#81ffd9" data-fill-palette-color="accent"></rect><rect x="68.9" y="62.8" width="10.1" height="0.9" fill="#81ffd9" data-fill-palette-color="accent"></rect></g></svg></g></svg></g><g></g></svg></g></svg></g></svg></g></svg></g><defs></defs></svg><rect width="320" height="360" fill="none" stroke="none" visibility="hidden"></rect></g></svg></g></svg>