<svg xmlns="http://www.w3.org/2000/svg" version="1.1" xmlns:xlink="http://www.w3.org/1999/xlink" xmlns:svgjs="http://svgjs.dev/svgjs" width="1500" height="1500" viewBox="0 0 1500 1500"><rect width="1500" height="1500" fill="#ffffff"></rect><g transform="matrix(0.6666666666666666,0,0,0.6666666666666666,248.69119397140008,63)"><svg viewBox="0 0 131 180" data-background-color="#ffffff" preserveAspectRatio="xMidYMid meet" height="2061" width="1500" xmlns="http://www.w3.org/2000/svg" xmlns:xlink="http://www.w3.org/1999/xlink"><g id="tight-bounds" transform="matrix(1,0,0,1,0.17145358974659075,0)"><svg viewBox="0 0 130.65709282050682 180" height="180" width="130.65709282050682"><g><svg viewBox="0 0 228.59115030528142 314.91904623560293" height="180" width="130.65709282050682"><g transform="matrix(1,0,0,1,0,147.4117022545101)"><svg viewBox="0 0 228.59115030528142 167.50734398109284" height="167.50734398109284" width="228.59115030528142"><g><path d="M0 167.507v-167.507h228.591v167.507z" fill="#1c4b82" stroke="transparent" stroke-width="0" rx="0%" data-fill-palette-color="tertiary"></path><path d="M3.283 164.224v-160.941h222.025v160.941z" fill="#ffffff" stroke="transparent" stroke-width="0" rx="0%" data-fill-palette-color="quaternary"></path><path d="M9.85 157.657v-147.807h208.891v147.807z" fill="#1c4b82" stroke="transparent" stroke-width="0" data-fill-palette-color="tertiary"></path></g><g transform="matrix(1,0,0,1,19.69974,19.69974)" id="textblocktransform"><svg viewBox="0 0 189.19167030528143 128.10786398109286" height="128.10786398109286" width="189.19167030528143" id="textblock"><g><svg viewBox="0 0 189.19167030528143 100.57561757280001" height="100.57561757280001" width="189.19167030528143"><g transform="matrix(1,0,0,1,0,0)"><svg width="189.19167030528143" viewBox="2.45 -34.9 65.64999999999999 34.9" height="100.57561757280001" data-palette-color="#ffffff"><path d="M2.45 0L2.45-2.7 6.1-2.7 6.1-32.2 2.45-32.2 2.45-34.9 19.75-34.9Q24.9-34.9 27.5-32.6 30.1-30.3 30.1-26.65L30.1-26.65Q30.1-24.8 29.5-23.38 28.9-21.95 27.93-20.95 26.95-19.95 25.7-19.3 24.45-18.65 23.1-18.4L23.1-18.4 23.1-18.15Q24.5-18 25.98-17.45 27.45-16.9 28.68-15.85 29.9-14.8 30.68-13.28 31.45-11.75 31.45-9.7L31.45-9.7Q31.45-5.15 28.7-2.58 25.95 0 21.05 0L21.05 0 2.45 0ZM12.05-16.55L12.05-2.9 19.35-2.9Q22.2-2.9 23.75-4.48 25.3-6.05 25.3-8.6L25.3-8.6 25.3-10.85Q25.3-13.4 23.75-14.98 22.2-16.55 19.35-16.55L19.35-16.55 12.05-16.55ZM12.05-32L12.05-19.5 18.5-19.5Q21.2-19.5 22.58-20.9 23.95-22.3 23.95-24.65L23.95-24.65 23.95-26.85Q23.95-29.2 22.58-30.6 21.2-32 18.5-32L18.5-32 12.05-32ZM36.7 0L36.7-2.7 40.35-2.7 40.35-32.2 36.7-32.2 36.7-34.9 52.05-34.9Q55.55-34.9 58.5-33.77 61.45-32.65 63.6-30.45 65.75-28.25 66.92-25 68.1-21.75 68.1-17.45L68.1-17.45Q68.1-13.15 66.92-9.9 65.75-6.65 63.6-4.45 61.45-2.25 58.5-1.13 55.55 0 52.05 0L52.05 0 36.7 0ZM46.3-31.95L46.3-2.95 51.2-2.95Q56.35-2.95 58.95-5.7 61.55-8.45 61.55-13.75L61.55-13.75 61.55-21.15Q61.55-26.45 58.95-29.2 56.35-31.95 51.2-31.95L51.2-31.95 46.3-31.95Z" opacity="1" transform="matrix(1,0,0,1,0,0)" fill="#ffffff" class="wordmark-text-0" data-fill-palette-color="quaternary" id="text-0"></path></svg></g></svg></g><g transform="matrix(1,0,0,1,0,107.14219757280001)"><svg viewBox="0 0 189.19167030528143 20.965666408292847" height="20.965666408292847" width="189.19167030528143"><g transform="matrix(1,0,0,1,0,0)"><svg width="189.19167030528143" viewBox="3 -33 302.28 33.5" height="20.965666408292847" data-palette-color="#ffffff"><path d="M17.6 0L3 0 3-0.8 7.05-2.8 7.05-30.2 3-32.2 3-33 16.45-33Q19.8-33 22.48-32.18 25.15-31.35 26.68-29.73 28.2-28.1 28.2-25.6L28.2-25.6Q28.2-23.05 26.45-20.93 24.7-18.8 21.4-17.9L21.4-17.9Q25.95-17.3 28.53-15.13 31.1-12.95 31.1-9.6L31.1-9.6Q31.1-6.85 29.35-4.67 27.6-2.5 24.55-1.25 21.5 0 17.6 0L17.6 0ZM15-30.25L15-30.25 12.3-30.25 12.3-18.35 15.25-18.35Q18.8-18.35 20.75-19.9 22.7-21.45 22.7-24.15L22.7-24.15Q22.7-30.25 15-30.25ZM16.85-15.7L16.85-15.7 12.3-15.7 12.3-2.75 17.2-2.75Q21.05-2.75 23.28-4.58 25.5-6.4 25.5-9.25L25.5-9.25Q25.5-12.6 23.25-14.15 21-15.7 16.85-15.7ZM59.4 0L36.45 0 36.45-0.8 40.05-2.45 40.05-25.55 36.45-27.2 36.45-28 49.05-28 49.05-27.2 45-25.55 45-2.5 55.45-2.5 58.6-9.85 59.4-9.85 59.4 0ZM73.5 0L64.2 0 64.2-0.8 66.75-2.15 77.85-28.25 80.45-28.25 91.45-2.25 94.4-0.8 94.4 0 82.8 0 82.8-0.8 86.3-2.25 83.2-9.65 72.9-9.65 69.85-2.2 73.5-0.8 73.5 0ZM78-22.1L73.95-12.15 82.15-12.15 78-22.1ZM110.84 0L99.09 0 99.09-0.8 102.39-2.45 102.39-25.55 99.09-27.2 99.09-28 110.84-28 110.84-27.2 107.39-25.55 107.39-2.45 110.84-0.8 110.84 0ZM140.39 0L118.49 0 118.49-1.1 133.49-25.5 122.39-25.5 119.79-19.85 118.99-19.85 118.99-28 139.89-28 139.89-26.9 124.84-2.5 136.84-2.5 139.59-8.6 140.39-8.6 140.39 0ZM162.64 0L147.79 0 147.79-0.8 151.84-2.8 151.84-30.2 147.79-32.2 147.79-33 162.99-33Q168.59-33 172.54-31.05 176.49-29.1 178.56-25.7 180.64-22.3 180.64-18L180.64-18Q180.64-14.1 179.29-10.8 177.94-7.5 175.51-5.1 173.09-2.7 169.81-1.35 166.54 0 162.64 0L162.64 0ZM161.64-30.25L161.64-30.25 157.09-30.25 157.09-2.75 162.39-2.75Q166.39-2.75 169.24-4.42 172.09-6.1 173.64-9.18 175.19-12.25 175.19-16.45L175.19-16.45Q175.19-20.6 173.61-23.73 172.04-26.85 169.01-28.55 165.99-30.25 161.64-30.25ZM198.79 0L187.04 0 187.04-0.8 190.34-2.45 190.34-25.55 187.04-27.2 187.04-28 198.79-28 198.79-27.2 195.34-25.55 195.34-2.45 198.79-0.8 198.79 0ZM214.28 0L203.53 0 203.53-0.8 207.23-2.45 216.48-14 207.53-25.8 204.28-27.2 204.28-28 216.93-28 216.93-27.2 213.48-25.6 213.48-25.4 219.98-16.9 226.48-25.4 226.48-25.55 223.23-27.2 223.23-28 233.38-28 233.38-27.2 230.23-25.75 221.48-14.95 230.98-2.5 234.73-0.8 234.73 0 221.93 0 221.93-0.8 225.13-2.3 225.13-2.5 218.03-11.9 210.83-2.55 210.83-2.4 214.28-0.8 214.28 0ZM254.03 0.5L254.03 0.5Q249.83 0.5 246.58-1.38 243.33-3.25 241.46-6.53 239.58-9.8 239.58-14L239.58-14Q239.58-18.2 241.46-21.5 243.33-24.8 246.58-26.68 249.83-28.55 254.03-28.55L254.03-28.55Q258.23-28.55 261.51-26.68 264.78-24.8 266.66-21.5 268.53-18.2 268.53-14L268.53-14Q268.53-9.8 266.66-6.53 264.78-3.25 261.51-1.38 258.23 0.5 254.03 0.5ZM254.83-2L254.83-2Q258.88-2 261.18-4.95 263.48-7.9 263.48-12.75L263.48-12.75Q263.48-16.7 262.21-19.7 260.93-22.7 258.63-24.38 256.33-26.05 253.38-26.05L253.38-26.05Q249.38-26.05 247.01-23.13 244.63-20.2 244.63-15.4L244.63-15.4Q244.63-11.4 245.93-8.4 247.23-5.4 249.53-3.7 251.83-2 254.83-2ZM285.43 0L274.58 0 274.58-0.8 278.13-2.45 278.13-25.6 274.58-27.2 274.58-28 282.03-28 298.93-7.95 298.93-25.6 294.53-27.2 294.53-28 305.28-28 305.28-27.2 301.73-25.6 301.73 0.2 299.43 0.2 280.98-21.55 280.98-2.6 285.43-0.8 285.43 0Z" opacity="1" transform="matrix(1,0,0,1,0,0)" fill="#ffffff" class="slogan-text-1" data-fill-palette-color="quaternary" id="text-1"></path></svg></g></svg></g></svg></g></svg></g><g transform="matrix(1,0,0,1,43.66090970830875,0)"><svg viewBox="0 0 141.26933088866392 140.8451222545101" height="140.8451222545101" width="141.26933088866392"><g><svg xmlns:x="http://ns.adobe.com/Extensibility/1.0/" xmlns:i="http://ns.adobe.com/AdobeIllustrator/10.0/" xmlns:graph="http://ns.adobe.com/Graphs/1.0/" xmlns="http://www.w3.org/2000/svg" xmlns:xlink="http://www.w3.org/1999/xlink" version="1.1" x="0" y="0" viewBox="5.025 5.107 53.949000000000005 53.787" enable-background="new 0 0 64 64" xml:space="preserve" height="140.8451222545101" width="141.26933088866392" class="icon-icon-0" data-fill-palette-color="accent" id="icon-0"><g fill="#1c4b82" data-fill-palette-color="accent"><g fill="#1c4b82" data-fill-palette-color="accent"><path d="M20.089 31H31v-2.485c-1.248-0.421-2.154-1.588-2.154-2.976s0.906-2.555 2.154-2.976v-2.018c-3.315-0.093-6.525-0.453-9.516-1.047C20.657 22.979 20.159 26.889 20.089 31z" fill="#1c4b82" data-fill-palette-color="accent"></path><circle cx="32" cy="25.539" r="1.2" fill="#1c4b82" data-fill-palette-color="accent"></circle><path d="M31 18.544V5.107c-3.733 0.741-7.037 5.576-9.009 12.457C24.818 18.117 27.856 18.453 31 18.544z" fill="#1c4b82" data-fill-palette-color="accent"></path><path d="M21.553 44.795c3.001-0.525 6.186-0.822 9.447-0.855V33H20.089C20.161 37.226 20.684 41.24 21.553 44.795z" fill="#1c4b82" data-fill-palette-color="accent"></path><path d="M39.075 46.404c-0.532 0.99-1.566 1.673-2.768 1.673-1.374 0-2.534-0.89-2.965-2.12-0.113-0.003-0.229-0.004-0.343-0.007v12.943c3.659-0.728 6.907-5.383 8.891-12.046C40.972 46.676 40.032 46.528 39.075 46.404z" fill="#1c4b82" data-fill-palette-color="accent"></path><path d="M45.911 33c-0.069 4.462-0.601 8.637-1.5 12.334 3.369 0.785 6.414 1.875 8.905 3.207 3.366-4.327 5.444-9.698 5.658-15.541H45.911z" fill="#1c4b82" data-fill-palette-color="accent"></path><path d="M44.583 19.379c0.797 3.517 1.263 7.445 1.328 11.621h13.063c-0.201-5.499-2.055-10.582-5.078-14.769C51.246 17.574 48.077 18.643 44.583 19.379z" fill="#1c4b82" data-fill-palette-color="accent"></path><path d="M42.078 17.806C40.115 10.796 36.777 5.857 33 5.107v13.458C36.135 18.552 39.195 18.286 42.078 17.806z" fill="#1c4b82" data-fill-palette-color="accent"></path><path d="M44.096 17.442c3.197-0.668 6.091-1.63 8.541-2.826-3.742-4.434-8.882-7.647-14.734-8.958C40.521 8.154 42.682 12.27 44.096 17.442z" fill="#1c4b82" data-fill-palette-color="accent"></path><path d="M31 58.894V45.939c-3.084 0.032-6.092 0.306-8.925 0.79C24.056 53.455 27.32 58.162 31 58.894z" fill="#1c4b82" data-fill-palette-color="accent"></path><circle cx="12.993" cy="32" r="1.5" fill="#1c4b82" data-fill-palette-color="accent"></circle><path d="M20.055 47.107c-3.09 0.662-5.893 1.597-8.277 2.754 3.702 4.187 8.677 7.216 14.315 8.479C23.567 55.934 21.469 52.021 20.055 47.107z" fill="#1c4b82" data-fill-palette-color="accent"></path><path d="M9.623 31c0.435-1.458 1.772-2.531 3.37-2.531 1.656 0 3.04 1.15 3.419 2.691 0.151-0.093 0.32-0.16 0.51-0.16h1.166c0.067-4.304 0.562-8.343 1.405-11.941-3.402-0.826-6.459-1.971-8.971-3.396C7.25 19.954 5.236 25.25 5.025 31H9.623z" fill="#1c4b82" data-fill-palette-color="accent"></path><path d="M43.898 47.267c-1.413 4.839-3.493 8.692-5.99 11.074 5.528-1.239 10.423-4.173 14.101-8.232C49.722 48.936 46.952 47.973 43.898 47.267z" fill="#1c4b82" data-fill-palette-color="accent"></path><path d="M43.911 33H33v10.951c0.107 0.002 0.215 0.003 0.321 0.006 0.411-1.265 1.587-2.188 2.986-2.188 1.571 0 2.867 1.158 3.104 2.663 1.021 0.134 2.023 0.292 3.005 0.479C43.304 41.328 43.839 37.272 43.911 33z" fill="#1c4b82" data-fill-palette-color="accent"></path><path d="M42.572 19.746c-3.044 0.518-6.271 0.806-9.572 0.819v1.998c1.248 0.421 2.154 1.588 2.154 2.976S34.248 28.094 33 28.515V31h10.911C43.843 26.986 43.365 23.165 42.572 19.746z" fill="#1c4b82" data-fill-palette-color="accent"></path><circle cx="36.308" cy="44.923" r="1.2" fill="#1c4b82" data-fill-palette-color="accent"></circle><path d="M18.089 33h-1.166c-0.19 0-0.359-0.067-0.51-0.16-0.379 1.541-1.763 2.691-3.419 2.691-1.598 0-2.936-1.073-3.37-2.531H5.025c0.209 5.72 2.202 10.99 5.443 15.269 2.59-1.312 5.68-2.359 9.081-3.094C18.674 41.518 18.157 37.398 18.089 33z" fill="#1c4b82" data-fill-palette-color="accent"></path><path d="M19.991 17.126c1.415-5.024 3.54-9.022 6.105-11.468-5.616 1.258-10.575 4.267-14.272 8.426C14.131 15.349 16.9 16.377 19.991 17.126z" fill="#1c4b82" data-fill-palette-color="accent"></path></g></g></svg><g></g></g></svg></g><g></g></svg></g><defs></defs></svg><rect width="130.65709282050682" height="180" fill="none" stroke="none" visibility="hidden"></rect></g></svg></g></svg>